<mxfile host="65bd71144e">
    <diagram name="Page-1" id="c7488fd3-1785-93aa-aadb-54a6760d102a">
        <mxGraphModel dx="1168" dy="790" grid="1" gridSize="10" guides="1" tooltips="1" connect="1" arrows="1" fold="1" page="1" pageScale="1" pageWidth="1100" pageHeight="850" background="none" math="0" shadow="0">
            <root>
                <mxCell id="0"/>
                <mxCell id="1" parent="0"/>
                <UserObject label="Datenflussdiagramm" id="xkVVOxBw_yeJyGsyUjNZ-36">
                    <mxCell style="swimlane;horizontal=0;shadow=1;labelBackgroundColor=none;labelBorderColor=none;fontSize=12;fontColor=#000000;strokeColor=#97D077;strokeWidth=2;fillColor=#97D077;gradientColor=none;" parent="1" vertex="1">
                        <mxGeometry x="50" y="660" width="900" height="330" as="geometry"/>
                    </mxCell>
                </UserObject>
                <UserObject label="SQLite3" link="https://github.com/Fuenfgeld/DMA2022DataProjectC/blob/main/src/analysis.ipynb" id="PFIuR6v0ovPzgkqPzc4s-4">
                    <mxCell style="swimlane;horizontal=0;startSize=23;" parent="xkVVOxBw_yeJyGsyUjNZ-36" vertex="1">
                        <mxGeometry x="140" y="9.5" width="750" height="215" as="geometry"/>
                    </mxCell>
                </UserObject>
                <mxCell id="YkNErlGE9aybnZ01sQq4-24" style="edgeStyle=orthogonalEdgeStyle;rounded=0;orthogonalLoop=1;jettySize=auto;html=1;entryX=0;entryY=0.5;entryDx=0;entryDy=0;strokeWidth=1;" parent="PFIuR6v0ovPzgkqPzc4s-4" target="PFIuR6v0ovPzgkqPzc4s-8" edge="1">
                    <mxGeometry relative="1" as="geometry">
                        <mxPoint x="140" y="49.5" as="sourcePoint"/>
                    </mxGeometry>
                </mxCell>
                <mxCell id="fH8lq0TSA_9BYZk7DDAZ-1" value="SQL&lt;br&gt;Staging&lt;br&gt;Datenbank" style="shape=cylinder3;whiteSpace=wrap;html=1;boundedLbl=1;backgroundOutline=1;size=15;strokeWidth=2;fillColor=#d5e8d4;strokeColor=#82b366;" parent="PFIuR6v0ovPzgkqPzc4s-4" vertex="1">
                    <mxGeometry x="65" y="15.049999999999997" width="80" height="80" as="geometry"/>
                </mxCell>
                <mxCell id="YkNErlGE9aybnZ01sQq4-33" style="edgeStyle=orthogonalEdgeStyle;rounded=0;orthogonalLoop=1;jettySize=auto;html=1;exitX=0.25;exitY=1;exitDx=0;exitDy=0;entryX=0;entryY=0.5;entryDx=0;entryDy=0;strokeWidth=1;" parent="PFIuR6v0ovPzgkqPzc4s-4" source="xkVVOxBw_yeJyGsyUjNZ-43" target="YkNErlGE9aybnZ01sQq4-3" edge="1">
                    <mxGeometry relative="1" as="geometry">
                        <Array as="points">
                            <mxPoint x="290" y="125"/>
                            <mxPoint x="290" y="162"/>
                        </Array>
                    </mxGeometry>
                </mxCell>
                <UserObject label="&lt;b&gt;Anonymisierung&lt;br&gt;&lt;/b&gt;" link="https://github.com/Fuenfgeld/DMA2022DataProjectC/wiki/Datenvorverarbeitung#anonymisierung" id="xkVVOxBw_yeJyGsyUjNZ-43">
                    <mxCell style="whiteSpace=wrap;html=1;strokeWidth=1;labelBorderColor=none;strokeColor=default;labelBackgroundColor=none;gradientColor=none;" parent="PFIuR6v0ovPzgkqPzc4s-4" vertex="1">
                        <mxGeometry x="270" y="97.5" width="100" height="27" as="geometry"/>
                    </mxCell>
                </UserObject>
                <mxCell id="xkVVOxBw_yeJyGsyUjNZ-8" value="" style="shape=cylinder3;whiteSpace=wrap;html=1;boundedLbl=1;backgroundOutline=3;size=15;strokeColor=#82b366;fillColor=#d5e8d4;strokeWidth=2;align=center;" parent="PFIuR6v0ovPzgkqPzc4s-4" vertex="1">
                    <mxGeometry x="483.49" y="28.80000000000001" width="152" height="156.7" as="geometry"/>
                </mxCell>
                <mxCell id="YkNErlGE9aybnZ01sQq4-26" style="edgeStyle=orthogonalEdgeStyle;rounded=0;orthogonalLoop=1;jettySize=auto;html=1;exitX=0.25;exitY=1;exitDx=0;exitDy=0;entryX=0;entryY=0.5;entryDx=0;entryDy=0;strokeWidth=1;" parent="PFIuR6v0ovPzgkqPzc4s-4" source="PFIuR6v0ovPzgkqPzc4s-8" target="uUQ6Lqgu7IrXjWPr7j8Y-1" edge="1">
                    <mxGeometry relative="1" as="geometry">
                        <Array as="points">
                            <mxPoint x="192" y="80"/>
                        </Array>
                    </mxGeometry>
                </mxCell>
                <mxCell id="PFIuR6v0ovPzgkqPzc4s-8" value="&lt;b&gt;DatenprÃ¼fung&lt;br&gt;&lt;/b&gt;" style="whiteSpace=wrap;html=1;strokeWidth=1;labelBorderColor=none;strokeColor=default;labelBackgroundColor=none;gradientColor=none;" parent="PFIuR6v0ovPzgkqPzc4s-4" vertex="1">
                    <mxGeometry x="169" y="36.00000000000006" width="90" height="27" as="geometry"/>
                </mxCell>
                <mxCell id="5ND1hd7ILfxyxebTAZks-1" value="facts" style="swimlane;fontStyle=0;childLayout=stackLayout;horizontal=1;startSize=20;horizontalStack=0;resizeParent=1;resizeParentMax=0;resizeLast=0;collapsible=1;marginBottom=0;fontSize=10;" parent="PFIuR6v0ovPzgkqPzc4s-4" vertex="1">
                    <mxGeometry x="541.99" y="101.5" width="40" height="50" as="geometry"/>
                </mxCell>
                <mxCell id="5ND1hd7ILfxyxebTAZks-2" value="Item 1" style="text;strokeColor=none;fillColor=none;align=left;verticalAlign=middle;spacingLeft=4;spacingRight=4;overflow=hidden;points=[[0,0.5],[1,0.5]];portConstraint=eastwest;rotatable=0;fontSize=6;" parent="5ND1hd7ILfxyxebTAZks-1" vertex="1">
                    <mxGeometry y="20" width="40" height="10" as="geometry"/>
                </mxCell>
                <mxCell id="5ND1hd7ILfxyxebTAZks-3" value="Item 2" style="text;strokeColor=none;fillColor=none;align=left;verticalAlign=middle;spacingLeft=4;spacingRight=4;overflow=hidden;points=[[0,0.5],[1,0.5]];portConstraint=eastwest;rotatable=0;fontSize=6;" parent="5ND1hd7ILfxyxebTAZks-1" vertex="1">
                    <mxGeometry y="30" width="40" height="10" as="geometry"/>
                </mxCell>
                <mxCell id="5ND1hd7ILfxyxebTAZks-4" value="Item 3" style="text;strokeColor=none;fillColor=none;align=left;verticalAlign=middle;spacingLeft=4;spacingRight=4;overflow=hidden;points=[[0,0.5],[1,0.5]];portConstraint=eastwest;rotatable=0;fontSize=6;" parent="5ND1hd7ILfxyxebTAZks-1" vertex="1">
                    <mxGeometry y="40" width="40" height="10" as="geometry"/>
                </mxCell>
                <mxCell id="5ND1hd7ILfxyxebTAZks-5" value="dims" style="swimlane;fontStyle=0;childLayout=stackLayout;horizontal=1;startSize=20;horizontalStack=0;resizeParent=1;resizeParentMax=0;resizeLast=0;collapsible=1;marginBottom=0;fontSize=10;" parent="PFIuR6v0ovPzgkqPzc4s-4" vertex="1">
                    <mxGeometry x="591.99" y="121.5" width="35" height="50" as="geometry"/>
                </mxCell>
                <mxCell id="5ND1hd7ILfxyxebTAZks-6" value="Item 1" style="text;strokeColor=none;fillColor=none;align=left;verticalAlign=middle;spacingLeft=4;spacingRight=4;overflow=hidden;points=[[0,0.5],[1,0.5]];portConstraint=eastwest;rotatable=0;fontSize=6;" parent="5ND1hd7ILfxyxebTAZks-5" vertex="1">
                    <mxGeometry y="20" width="35" height="10" as="geometry"/>
                </mxCell>
                <mxCell id="5ND1hd7ILfxyxebTAZks-7" value="Item 2" style="text;strokeColor=none;fillColor=none;align=left;verticalAlign=middle;spacingLeft=4;spacingRight=4;overflow=hidden;points=[[0,0.5],[1,0.5]];portConstraint=eastwest;rotatable=0;fontSize=6;" parent="5ND1hd7ILfxyxebTAZks-5" vertex="1">
                    <mxGeometry y="30" width="35" height="10" as="geometry"/>
                </mxCell>
                <mxCell id="5ND1hd7ILfxyxebTAZks-8" value="Item 3" style="text;strokeColor=none;fillColor=none;align=left;verticalAlign=middle;spacingLeft=4;spacingRight=4;overflow=hidden;points=[[0,0.5],[1,0.5]];portConstraint=eastwest;rotatable=0;fontSize=6;" parent="5ND1hd7ILfxyxebTAZks-5" vertex="1">
                    <mxGeometry y="40" width="35" height="10" as="geometry"/>
                </mxCell>
                <mxCell id="5ND1hd7ILfxyxebTAZks-9" value="dims" style="swimlane;fontStyle=0;childLayout=stackLayout;horizontal=1;startSize=20;horizontalStack=0;resizeParent=1;resizeParentMax=0;resizeLast=0;collapsible=1;marginBottom=0;fontSize=10;" parent="PFIuR6v0ovPzgkqPzc4s-4" vertex="1">
                    <mxGeometry x="491.99" y="121.5" width="40" height="50" as="geometry"/>
                </mxCell>
                <mxCell id="5ND1hd7ILfxyxebTAZks-10" value="Item 1" style="text;strokeColor=none;fillColor=none;align=left;verticalAlign=middle;spacingLeft=4;spacingRight=4;overflow=hidden;points=[[0,0.5],[1,0.5]];portConstraint=eastwest;rotatable=0;fontSize=6;" parent="5ND1hd7ILfxyxebTAZks-9" vertex="1">
                    <mxGeometry y="20" width="40" height="10" as="geometry"/>
                </mxCell>
                <mxCell id="5ND1hd7ILfxyxebTAZks-11" value="Item 2" style="text;strokeColor=none;fillColor=none;align=left;verticalAlign=middle;spacingLeft=4;spacingRight=4;overflow=hidden;points=[[0,0.5],[1,0.5]];portConstraint=eastwest;rotatable=0;fontSize=6;" parent="5ND1hd7ILfxyxebTAZks-9" vertex="1">
                    <mxGeometry y="30" width="40" height="10" as="geometry"/>
                </mxCell>
                <mxCell id="5ND1hd7ILfxyxebTAZks-12" value="Item 3" style="text;strokeColor=none;fillColor=none;align=left;verticalAlign=middle;spacingLeft=4;spacingRight=4;overflow=hidden;points=[[0,0.5],[1,0.5]];portConstraint=eastwest;rotatable=0;fontSize=6;" parent="5ND1hd7ILfxyxebTAZks-9" vertex="1">
                    <mxGeometry y="40" width="40" height="10" as="geometry"/>
                </mxCell>
                <mxCell id="5ND1hd7ILfxyxebTAZks-13" value="" style="endArrow=none;html=1;rounded=0;fontSize=6;exitX=1;exitY=0.5;exitDx=0;exitDy=0;entryX=0;entryY=0.5;entryDx=0;entryDy=0;" parent="PFIuR6v0ovPzgkqPzc4s-4" source="5ND1hd7ILfxyxebTAZks-9" target="5ND1hd7ILfxyxebTAZks-2" edge="1">
                    <mxGeometry width="50" height="50" relative="1" as="geometry">
                        <mxPoint x="591.99" y="151.5" as="sourcePoint"/>
                        <mxPoint x="641.99" y="101.5" as="targetPoint"/>
                    </mxGeometry>
                </mxCell>
                <mxCell id="5ND1hd7ILfxyxebTAZks-14" value="" style="endArrow=none;html=1;rounded=0;fontSize=6;entryX=0;entryY=0.5;entryDx=0;entryDy=0;exitX=1;exitY=0.5;exitDx=0;exitDy=0;" parent="PFIuR6v0ovPzgkqPzc4s-4" source="5ND1hd7ILfxyxebTAZks-3" target="5ND1hd7ILfxyxebTAZks-7" edge="1">
                    <mxGeometry width="50" height="50" relative="1" as="geometry">
                        <mxPoint x="591.99" y="151.5" as="sourcePoint"/>
                        <mxPoint x="641.99" y="101.5" as="targetPoint"/>
                    </mxGeometry>
                </mxCell>
                <mxCell id="5ND1hd7ILfxyxebTAZks-15" value="&lt;font style=&quot;font-size: 13px;&quot;&gt;&lt;b&gt;Data Mart&lt;/b&gt;&lt;/font&gt;" style="text;html=1;strokeColor=none;fillColor=none;align=center;verticalAlign=middle;whiteSpace=wrap;rounded=0;fontSize=10;" parent="PFIuR6v0ovPzgkqPzc4s-4" vertex="1">
                    <mxGeometry x="483.49" y="61.5" width="152" height="30" as="geometry"/>
                </mxCell>
                <mxCell id="YkNErlGE9aybnZ01sQq4-29" style="edgeStyle=orthogonalEdgeStyle;rounded=0;orthogonalLoop=1;jettySize=auto;html=1;exitX=0.25;exitY=1;exitDx=0;exitDy=0;entryX=0;entryY=0.5;entryDx=0;entryDy=0;strokeWidth=1;" parent="PFIuR6v0ovPzgkqPzc4s-4" source="uUQ6Lqgu7IrXjWPr7j8Y-1" target="xkVVOxBw_yeJyGsyUjNZ-43" edge="1">
                    <mxGeometry relative="1" as="geometry">
                        <Array as="points">
                            <mxPoint x="250" y="97"/>
                            <mxPoint x="250" y="111"/>
                        </Array>
                    </mxGeometry>
                </mxCell>
                <UserObject label="&lt;b&gt;VergrÃ¶berung&lt;br&gt;&lt;/b&gt;" link="https://github.com/Fuenfgeld/DMA2022DataProjectC/wiki/Datenvorverarbeitung#vergr%C3%B6berung-der-daten" id="uUQ6Lqgu7IrXjWPr7j8Y-1">
                    <mxCell style="whiteSpace=wrap;html=1;strokeWidth=1;labelBorderColor=none;strokeColor=default;labelBackgroundColor=none;gradientColor=none;" parent="PFIuR6v0ovPzgkqPzc4s-4" vertex="1">
                        <mxGeometry x="227" y="65.04999999999994" width="90" height="30" as="geometry"/>
                    </mxCell>
                </UserObject>
                <mxCell id="xkVVOxBw_yeJyGsyUjNZ-20" style="edgeStyle=none;rounded=0;orthogonalLoop=1;jettySize=auto;html=1;exitX=1;exitY=0.5;exitDx=0;exitDy=0;exitPerimeter=0;entryX=0;entryY=0.5;entryDx=0;entryDy=0;" parent="PFIuR6v0ovPzgkqPzc4s-4" source="xkVVOxBw_yeJyGsyUjNZ-8" target="xkVVOxBw_yeJyGsyUjNZ-28" edge="1">
                    <mxGeometry relative="1" as="geometry">
                        <mxPoint x="535.49" y="201.5" as="sourcePoint"/>
                        <mxPoint x="705" y="107.5" as="targetPoint"/>
                    </mxGeometry>
                </mxCell>
                <mxCell id="xkVVOxBw_yeJyGsyUjNZ-28" value="" style="shape=image;html=1;verticalAlign=top;verticalLabelPosition=bottom;labelBackgroundColor=#ffffff;imageAspect=0;aspect=fixed;image=https://cdn4.iconfinder.com/data/icons/online-marketing-hand-drawn-vol-2/52/graph__diagram__chart__analytics__analysis__business__growth-128.png;shadow=1;strokeColor=#0000FF;strokeWidth=2;fillColor=#99CCFF;" parent="PFIuR6v0ovPzgkqPzc4s-4" vertex="1">
                    <mxGeometry x="681" y="80.49999999999997" width="54" height="54" as="geometry"/>
                </mxCell>
                <mxCell id="YkNErlGE9aybnZ01sQq4-17" value="data.sqlite" style="text;html=1;strokeColor=none;fillColor=none;align=center;verticalAlign=middle;whiteSpace=wrap;rounded=0;" parent="PFIuR6v0ovPzgkqPzc4s-4" vertex="1">
                    <mxGeometry x="75" y="90.49999999999994" width="60" height="30" as="geometry"/>
                </mxCell>
                <mxCell id="YkNErlGE9aybnZ01sQq4-32" style="edgeStyle=orthogonalEdgeStyle;rounded=0;orthogonalLoop=1;jettySize=auto;html=1;exitX=1;exitY=0.5;exitDx=0;exitDy=0;entryX=0;entryY=0.5;entryDx=0;entryDy=0;entryPerimeter=0;strokeWidth=1;" parent="PFIuR6v0ovPzgkqPzc4s-4" source="YkNErlGE9aybnZ01sQq4-3" target="xkVVOxBw_yeJyGsyUjNZ-8" edge="1">
                    <mxGeometry relative="1" as="geometry">
                        <Array as="points">
                            <mxPoint x="464" y="173"/>
                            <mxPoint x="464" y="107"/>
                        </Array>
                    </mxGeometry>
                </mxCell>
                <mxCell id="YkNErlGE9aybnZ01sQq4-3" value="pandas df" style="swimlane;horizontal=0;labelBorderColor=none;strokeColor=default;fillColor=default;" parent="PFIuR6v0ovPzgkqPzc4s-4" vertex="1">
                    <mxGeometry x="306" y="127.5" width="139" height="69.5" as="geometry"/>
                </mxCell>
                <mxCell id="xkVVOxBw_yeJyGsyUjNZ-44" value="&lt;b&gt;Transfomation Sternschema&lt;br&gt;&lt;/b&gt;" style="whiteSpace=wrap;html=1;strokeWidth=2;labelBorderColor=none;strokeColor=none;labelBackgroundColor=none;gradientColor=none;" parent="YkNErlGE9aybnZ01sQq4-3" vertex="1">
                    <mxGeometry x="39" y="15.300000000000011" width="90" height="37.45" as="geometry"/>
                </mxCell>
                <mxCell id="YkNErlGE9aybnZ01sQq4-19" style="edgeStyle=orthogonalEdgeStyle;rounded=0;orthogonalLoop=1;jettySize=auto;html=1;exitX=1;exitY=0.5;exitDx=0;exitDy=0;entryX=0;entryY=0.5;entryDx=0;entryDy=0;entryPerimeter=0;strokeWidth=4;fillColor=#d5e8d4;strokeColor=#82b366;" parent="1" source="PFIuR6v0ovPzgkqPzc4s-3" target="fH8lq0TSA_9BYZk7DDAZ-1" edge="1">
                    <mxGeometry relative="1" as="geometry">
                        <Array as="points">
                            <mxPoint x="230" y="934"/>
                            <mxPoint x="230" y="725"/>
                            <mxPoint x="255" y="725"/>
                        </Array>
                    </mxGeometry>
                </mxCell>
                <mxCell id="PFIuR6v0ovPzgkqPzc4s-3" value="CSV-Files" style="swimlane;horizontal=0;labelBorderColor=none;strokeColor=default;fillColor=default;" parent="1" vertex="1">
                    <mxGeometry x="80" y="884" width="110" height="101" as="geometry"/>
                </mxCell>
                <mxCell id="fH8lq0TSA_9BYZk7DDAZ-3" value="" style="shape=image;html=1;verticalAlign=top;verticalLabelPosition=bottom;labelBackgroundColor=#ffffff;imageAspect=0;aspect=fixed;image=https://cdn1.iconfinder.com/data/icons/bootstrap-vol-3/16/filetype-csv-128.png" parent="PFIuR6v0ovPzgkqPzc4s-3" vertex="1">
                    <mxGeometry x="39.99999999999997" y="27.500000000000057" width="48" height="48" as="geometry"/>
                </mxCell>
                <mxCell id="fH8lq0TSA_9BYZk7DDAZ-5" value="" style="shape=image;html=1;verticalAlign=top;verticalLabelPosition=bottom;labelBackgroundColor=#ffffff;imageAspect=0;aspect=fixed;image=https://cdn1.iconfinder.com/data/icons/bootstrap-vol-3/16/filetype-csv-128.png" parent="PFIuR6v0ovPzgkqPzc4s-3" vertex="1">
                    <mxGeometry x="30" y="45.30000000000001" width="46.2" height="46.2" as="geometry"/>
                </mxCell>
                <mxCell id="fH8lq0TSA_9BYZk7DDAZ-7" value="" style="shape=image;html=1;verticalAlign=top;verticalLabelPosition=bottom;labelBackgroundColor=#97D077;imageAspect=0;aspect=fixed;image=https://cdn1.iconfinder.com/data/icons/bootstrap-vol-3/16/filetype-csv-128.png;fontColor=#000000;imageBorder=none;imageBackground=default;sketch=0;" parent="PFIuR6v0ovPzgkqPzc4s-3" vertex="1">
                    <mxGeometry x="52.400000000000006" y="9.500000000000057" width="48" height="48" as="geometry"/>
                </mxCell>
                <mxCell id="YkNErlGE9aybnZ01sQq4-8" value="ETL.ipynb" style="html=1;shadow=0;dashed=0;align=center;verticalAlign=middle;shape=mxgraph.arrows2.arrow;dy=0;dx=10;notch=10;fillColor=#d5e8d4;strokeColor=#82b366;" parent="1" vertex="1">
                    <mxGeometry x="230" y="630" width="430" height="20" as="geometry"/>
                </mxCell>
                <UserObject label="extract.py" link="https://github.com/Fuenfgeld/DMA2022DataProjectC/blob/main/src/extract.py" id="YkNErlGE9aybnZ01sQq4-9">
                    <mxCell style="html=1;shadow=0;dashed=0;align=center;verticalAlign=middle;shape=mxgraph.arrows2.arrow;dy=0;dx=10;notch=0;fillColor=#f5f5f5;fontColor=#333333;strokeColor=#666666;" parent="1" vertex="1">
                        <mxGeometry x="120" y="630" width="110" height="20" as="geometry"/>
                    </mxCell>
                </UserObject>
                <UserObject label="analysis.ipynb" link="https://github.com/Fuenfgeld/DMA2022DataProjectC/blob/main/src/analysis.ipynb" id="YkNErlGE9aybnZ01sQq4-15">
                    <mxCell style="html=1;shadow=0;dashed=0;align=center;verticalAlign=middle;shape=mxgraph.arrows2.arrow;dy=0;dx=10;notch=10;fillColor=#d5e8d4;strokeColor=#82b366;" parent="1" vertex="1">
                        <mxGeometry x="660" y="630" width="280" height="20" as="geometry"/>
                    </mxCell>
                </UserObject>
                <UserObject label="logger.py" link="https://github.com/Fuenfgeld/DMA2022DataProjectC/blob/main/src/logger.py" id="YkNErlGE9aybnZ01sQq4-36">
                    <mxCell style="html=1;shadow=0;dashed=0;align=center;verticalAlign=middle;shape=mxgraph.arrows2.arrow;dy=0;dx=10;notch=0;fillColor=#f5f5f5;fontColor=#333333;strokeColor=#666666;" parent="1" vertex="1">
                        <mxGeometry x="120" y="600" width="820" height="20" as="geometry"/>
                    </mxCell>
                </UserObject>
                <UserObject label="test_executer.py" link="https://github.com/Fuenfgeld/DMA2022DataProjectC/blob/main/src/test_executer.py" id="YkNErlGE9aybnZ01sQq4-37">
                    <mxCell style="html=1;shadow=0;dashed=0;align=center;verticalAlign=middle;shape=mxgraph.arrows2.arrow;dy=0;dx=10;notch=0;fillColor=#f5f5f5;fontColor=#333333;strokeColor=#666666;" parent="1" vertex="1">
                        <mxGeometry x="120" y="570" width="820" height="20" as="geometry"/>
                    </mxCell>
                </UserObject>
            </root>
        </mxGraphModel>
    </diagram>
</mxfile>